<?xml version="1.0" encoding="utf-8"?>
<!-- Generator: Adobe Illustrator 24.0.0, SVG Export Plug-In . SVG Version: 6.00 Build 0)  -->
<svg version="1.1" xmlns="http://www.w3.org/2000/svg" xmlns:xlink="http://www.w3.org/1999/xlink" x="0px" y="0px"
	 viewBox="0 0 621.01 481" style="enable-background:new 0 0 621.01 481;" xml:space="preserve">
<style type="text/css">
	.st0{fill:#FFFFFF;}
</style>
<g id="Layer_1">
</g>
<g id="Layer_2">
	<g>
		<g>
			<g>
				<g>
					<path class="st0" d="M137.06,168.96c-3.28,0.92-6.03,2.19-8.18,3.77c-2.19,1.61-3.91,3.56-5.12,5.77
						c-1.15,2.11-2.01,4.4-2.57,6.8c-0.54,2.36-0.86,4.81-0.93,7.3c-0.07,2.39-0.1,4.72-0.1,7.01v88.51c0,3.87,0.46,7.58,1.35,11.02
						c0.92,3.55,2.43,6.69,4.48,9.34c2.08,2.68,4.82,4.84,8.16,6.42c3.31,1.57,7.33,2.36,11.95,2.36c7.78,0,13.77-2.27,17.8-6.76
						c3.97-4.42,5.98-10.5,5.98-18.05v-20.8h-11.85v20.69c0,4.61-1.03,8.14-3.05,10.49c-1.97,2.29-4.94,3.4-9.09,3.4
						c-2.54,0-4.7-0.44-6.42-1.32c-1.73-0.88-3.1-2.06-4.18-3.61c-1.11-1.59-1.94-3.5-2.46-5.68c-0.54-2.26-0.82-4.79-0.82-7.49
						v-92.01c0-3.61,0.38-6.62,1.14-8.93c0.7-2.16,1.77-3.88,3.19-5.09c1.45-1.24,3.36-2.13,5.68-2.64
						c2.51-0.55,5.58-0.83,9.13-0.83h6.89v34.58h11.85V167.6h-21.1C144.24,167.6,140.29,168.05,137.06,168.96z"/>
					<path class="st0" d="M194.1,167.05c-3.3,0.89-6.06,2.17-8.22,3.8c-2.18,1.64-3.91,3.59-5.14,5.78
						c-1.19,2.13-2.06,4.41-2.58,6.8c-0.5,2.3-0.81,4.73-0.92,7.25c-0.1,2.43-0.16,4.8-0.16,7.09v88.4c0,4.11,0.4,8.04,1.18,11.7
						c0.8,3.77,2.17,7.11,4.06,9.93c1.93,2.87,4.51,5.19,7.68,6.89c3.17,1.7,7.1,2.56,11.68,2.56c4.85,0,8.97-0.9,12.25-2.66
						c3.28-1.77,5.92-4.17,7.85-7.12c1.89-2.88,3.21-6.24,3.95-10c0.71-3.62,1.07-7.43,1.07-11.31V165.74h-20.9
						C201.29,165.74,197.31,166.18,194.1,167.05z M202.1,306.23c-2.52,0-4.62-0.44-6.23-1.3c-1.62-0.87-2.95-2.05-3.95-3.52
						c-1.05-1.53-1.81-3.3-2.26-5.26c-0.48-2.07-0.72-4.29-0.72-6.59v-95.2c0-3.61,0.38-6.61,1.14-8.93
						c0.7-2.15,1.78-3.86,3.22-5.08c1.49-1.26,3.44-2.17,5.77-2.71c2.5-0.58,5.53-0.87,9-0.87h6.89v112.79
						c0,2.36-0.26,4.62-0.76,6.72c-0.49,2.02-1.26,3.8-2.27,5.3c-0.98,1.44-2.24,2.56-3.84,3.4
						C206.51,305.81,204.49,306.23,202.1,306.23z"/>
					<path class="st0" d="M254.62,167.05c-3.3,0.89-6.06,2.17-8.22,3.8c-2.18,1.64-3.91,3.59-5.14,5.78
						c-1.19,2.13-2.06,4.41-2.58,6.8c-0.5,2.3-0.81,4.73-0.92,7.25c-0.1,2.43-0.16,4.8-0.16,7.09v88.4c0,4.11,0.4,8.04,1.18,11.7
						c0.8,3.77,2.17,7.11,4.06,9.93c1.93,2.87,4.51,5.19,7.68,6.89c3.17,1.7,7.1,2.56,11.68,2.56c4.85,0,8.97-0.9,12.25-2.66
						c3.28-1.77,5.92-4.17,7.85-7.12c1.89-2.88,3.21-6.24,3.95-10c0.71-3.62,1.07-7.43,1.07-11.31V165.74h-20.9
						C261.8,165.74,257.83,166.18,254.62,167.05z M262.61,306.23c-2.53,0-4.62-0.44-6.23-1.3c-1.62-0.87-2.95-2.05-3.96-3.52
						c-1.05-1.53-1.81-3.3-2.26-5.26c-0.48-2.07-0.72-4.29-0.72-6.59v-95.2c0-3.61,0.38-6.61,1.14-8.93
						c0.7-2.15,1.78-3.86,3.22-5.08c1.49-1.26,3.44-2.17,5.77-2.71c2.5-0.58,5.53-0.87,9-0.87h6.89v112.79
						c0,2.36-0.26,4.62-0.76,6.72c-0.49,2.02-1.26,3.8-2.27,5.3c-0.98,1.44-2.24,2.56-3.84,3.4
						C267.02,305.81,265.01,306.23,262.61,306.23z"/>
					<path class="st0" d="M311.51,194.26c0-3.5,0.45-6.43,1.35-8.71c0.85-2.18,2.1-3.93,3.73-5.2c1.67-1.31,3.72-2.26,6.08-2.8
						c2.52-0.58,5.44-0.88,8.7-0.88h2.07v-11.02h-2.07c-5.09,0-9.46,0.45-13.01,1.35c-3.61,0.91-6.64,2.17-9.01,3.73
						c-2.45,1.6-4.36,3.54-5.69,5.76c-1.26,2.12-2.21,4.42-2.8,6.84c-0.58,2.35-0.93,4.8-1.04,7.3c-0.11,2.4-0.16,4.74-0.16,7.03
						v117.54h44.68v-11.02h-32.83V194.26z"/>
					<path class="st0" d="M360.8,240.99h30.05v-11.03H360.8v-33.64c0-3.61,0.38-6.62,1.13-8.93c0.7-2.15,1.78-3.86,3.23-5.08
						c1.49-1.26,3.43-2.17,5.77-2.7c2.52-0.58,5.55-0.88,9.01-0.88h10.81V167.7h-12.97c-4.62,0-8.59,0.44-11.81,1.3
						c-3.3,0.89-6.06,2.16-8.22,3.8c-2.18,1.65-3.91,3.59-5.14,5.78c-1.19,2.13-2.06,4.41-2.58,6.79c-0.5,2.3-0.81,4.74-0.92,7.25
						c-0.1,2.43-0.16,4.79-0.16,7.09v115.48h44.37v-11.02H360.8V240.99z"/>
					<path class="st0" d="M441.6,172.77c-2.23-2.2-4.9-3.95-7.91-5.22c-5.84-2.45-13.25-2.58-19.47-0.12
						c-3.02,1.19-5.68,2.87-7.92,5c-2.25,2.14-4.06,4.76-5.36,7.78c-1.31,3.02-1.97,6.36-1.97,9.93v12.56
						c0,3.7,0.66,7.12,1.97,10.17c1.26,2.97,2.95,5.79,5.01,8.4c2.04,2.57,4.37,5.01,6.95,7.27c2.51,2.21,5.05,4.38,7.6,6.52
						c2.11,1.77,4.18,3.57,6.22,5.41c1.97,1.77,3.75,3.63,5.28,5.53c1.5,1.85,2.7,3.77,3.58,5.73c0.84,1.85,1.26,3.85,1.26,5.94
						v34.99c0,1.93-0.32,3.74-0.94,5.39c-0.62,1.62-1.52,3.05-2.66,4.25c-1.14,1.2-2.53,2.17-4.13,2.88
						c-3.05,1.36-7.43,1.44-10.64,0.04c-1.54-0.67-2.89-1.61-3.99-2.8c-1.13-1.22-2.03-2.67-2.69-4.31
						c-0.65-1.63-0.98-3.46-0.98-5.46v-24.19h-11.85v24.29c0,3.42,0.62,6.66,1.85,9.64c1.23,2.99,2.98,5.61,5.2,7.79
						c2.21,2.17,4.85,3.91,7.85,5.17c3.02,1.27,6.35,1.91,9.91,1.91c3.4,0,6.65-0.6,9.66-1.79c3.01-1.19,5.68-2.89,7.93-5.07
						c2.24-2.17,4.04-4.78,5.34-7.76c1.31-3,1.97-6.32,1.97-9.88v-35.09c0-3.42-0.65-6.67-1.92-9.66c-1.23-2.9-2.86-5.68-4.84-8.27
						c-1.96-2.56-4.2-5-6.68-7.27c-2.42-2.21-4.88-4.37-7.37-6.44c-2.19-1.84-4.34-3.69-6.46-5.54c-2.04-1.77-3.88-3.65-5.48-5.57
						c-1.56-1.87-2.83-3.87-3.78-5.93c-0.9-1.95-1.35-4.06-1.35-6.29v-12.46c0-1.93,0.32-3.74,0.95-5.38
						c0.62-1.63,1.5-3.07,2.62-4.27c1.11-1.19,2.48-2.15,4.1-2.86c3.07-1.34,7.31-1.47,10.66-0.05c1.58,0.67,2.93,1.61,4.03,2.8
						c1.13,1.22,2.04,2.67,2.69,4.3c0.65,1.64,0.98,3.47,0.98,5.46v23.06h11.85v-23.16c0-3.42-0.63-6.65-1.86-9.6
						C445.61,177.6,443.85,174.98,441.6,172.77z"/>
					<polygon class="st0" points="451.25,167.7 451.25,178.73 470.4,178.73 470.4,315.19 482.25,315.19 482.25,178.73 
						501.29,178.73 501.29,167.7 					"/>
				</g>
			</g>
			<g>
				<path class="st0" d="M232.97,105.23v-9.3h6.93v-8.19l10.45-9.57v17.76h9.84v9.3h-9.84v25.85c0,4.14,0.23,6.7,0.69,7.67
					c0.46,0.97,1.6,1.46,3.44,1.46c1.94,0,3.85-0.36,5.72-1.1v9.51c-2.68,0.95-5.35,1.43-8.03,1.43c-3.19,0-5.77-0.71-7.75-2.12
					c-1.98-1.41-3.22-3.18-3.74-5.31c-0.51-2.13-0.77-5.79-0.77-11v-26.4H232.97z"/>
				<path class="st0" d="M278.48,139.88V81.97h-9.62v-9.29h20.07v29.37c6.27-5.06,12.23-7.59,17.87-7.59c3.52,0,6.42,0.73,8.69,2.2
					c2.27,1.47,3.82,3.4,4.65,5.8c0.82,2.4,1.24,5.91,1.24,10.53v26.89h9.08v9.29h-19.52v-32.56c0-4.03-0.13-6.73-0.39-8.08
					c-0.26-1.36-0.96-2.47-2.12-3.35c-1.16-0.88-2.52-1.32-4.1-1.32c-4.03,0-9.17,2.29-15.4,6.88v29.15h9.24v9.29h-29.31v-9.29
					H278.48z"/>
				<path class="st0" d="M388.49,125.19h-44.77c0.66,4.91,2.6,8.89,5.83,11.93c3.22,3.04,7.35,4.57,12.37,4.57
					c7.29,0,13.07-2.93,17.32-8.8l9.24,4.07c-3.01,4.66-6.91,8.11-11.71,10.37c-4.8,2.25-9.83,3.38-15.07,3.38
					c-8.14,0-15.1-2.54-20.87-7.62c-5.78-5.08-8.66-11.93-8.66-20.54c0-8.17,2.81-14.9,8.44-20.18c5.63-5.28,12.09-7.92,19.39-7.92
					c7.15,0,13.63,2.58,19.44,7.73C385.25,107.33,388.27,115,388.49,125.19z M377.71,117.61c-0.73-3.74-2.68-7.12-5.83-10.15
					c-3.15-3.03-7.02-4.54-11.6-4.54c-4.18,0-7.75,1.37-10.72,4.1c-2.97,2.73-4.79,6.26-5.45,10.59H377.71z"/>
			</g>
			<rect x="120.17" y="117.63" class="st0" width="88.72" height="7.7"/>
			<rect x="120.17" y="332.18" class="st0" width="381.12" height="7.7"/>
			<rect x="412.56" y="117.63" class="st0" width="88.72" height="7.7"/>
			<g>
				<path class="st0" d="M124.92,402.53v-30.86h-4.73v-4.9h10.24v4.41c2.75-3.23,6.07-4.84,9.98-4.84c3.94,0,7.21,1.35,9.79,4.06
					c2.58,2.71,3.87,6.23,3.87,10.56c0,4.54-1.4,8.13-4.21,10.76c-2.8,2.63-5.99,3.94-9.57,3.94c-3.71,0-7-1.43-9.86-4.29v11.17
					h4.76v4.9h-15.02v-4.9H124.92z M130.34,381.22c0,1.55,0.32,3.03,0.96,4.44s1.65,2.6,3.04,3.55c1.39,0.96,3.03,1.44,4.9,1.44
					c2.63,0,4.8-0.88,6.51-2.64c1.71-1.76,2.57-4.18,2.57-7.25c0-3-0.89-5.34-2.68-7.02c-1.79-1.68-3.82-2.52-6.1-2.52
					c-2.44,0-4.58,0.91-6.42,2.74C131.27,375.78,130.34,378.2,130.34,381.22z"/>
				<path class="st0" d="M162.68,389.95v-30.54h-4.99v-4.9h10.5v35.44h4.29v4.9h-14.79v-4.9H162.68z"/>
				<path class="st0" d="M204.62,389.95v4.9h-9.63v-3.42c-2.67,2.59-5.65,3.89-8.93,3.89c-2.55,0-4.77-0.83-6.66-2.49
					c-1.89-1.66-2.83-3.79-2.83-6.38c0-2.61,1-4.78,3-6.5c2-1.72,4.41-2.58,7.24-2.58c2.63,0,5.17,0.79,7.63,2.38v-2.78
					c0-1.43-0.14-2.53-0.41-3.31c-0.27-0.77-0.9-1.47-1.9-2.09c-1-0.62-2.3-0.93-3.9-0.93c-2.77,0-4.77,1.1-6,3.31l-5.28-1.39
					c2.34-4.37,6.38-6.56,12.12-6.56c2.11,0,3.93,0.29,5.47,0.86c1.54,0.57,2.68,1.3,3.44,2.2c0.75,0.9,1.26,1.87,1.52,2.91
					c0.26,1.04,0.39,2.71,0.39,4.99v12.99H204.62z M194.44,384.41c-2.38-1.86-4.78-2.78-7.22-2.78c-1.53,0-2.8,0.44-3.83,1.33
					c-1.02,0.89-1.54,2.04-1.54,3.45c0,1.31,0.45,2.42,1.35,3.31c0.9,0.89,2.12,1.33,3.67,1.33c2.67,0,5.19-1.12,7.57-3.36V384.41z"
					/>
				<path class="st0" d="M234.09,366.77v10.62h-4.93c-0.25-2.03-1.08-3.59-2.48-4.67c-1.4-1.08-3.03-1.62-4.89-1.62
					c-2.47,0-4.49,0.87-6.03,2.62c-1.55,1.75-2.32,4.05-2.32,6.89c0,2.65,0.73,4.98,2.2,7c1.47,2.02,3.6,3.03,6.38,3.03
					c3.87,0,6.67-1.84,8.41-5.51l4.55,2.15c-2.51,5.59-6.91,8.38-13.2,8.38c-4.45,0-7.95-1.52-10.5-4.55
					c-2.55-3.04-3.83-6.53-3.83-10.5c0-4.23,1.39-7.73,4.18-10.49c2.78-2.76,5.99-4.13,9.63-4.13c3.11,0,5.74,0.92,7.89,2.76v-1.97
					H234.09z"/>
				<path class="st0" d="M268.16,382.2h-23.61c0.35,2.59,1.37,4.69,3.07,6.29c1.7,1.6,3.88,2.41,6.53,2.41
					c3.85,0,6.89-1.55,9.13-4.64l4.87,2.15c-1.59,2.45-3.64,4.28-6.18,5.47c-2.53,1.19-5.18,1.78-7.95,1.78
					c-4.29,0-7.96-1.34-11.01-4.02c-3.05-2.68-4.57-6.29-4.57-10.83c0-4.31,1.48-7.86,4.45-10.64c2.97-2.78,6.38-4.18,10.22-4.18
					c3.77,0,7.19,1.36,10.25,4.08C266.46,372.78,268.05,376.83,268.16,382.2z M262.48,378.2c-0.39-1.97-1.41-3.76-3.07-5.35
					c-1.66-1.6-3.7-2.39-6.12-2.39c-2.2,0-4.09,0.72-5.66,2.16c-1.57,1.44-2.52,3.3-2.87,5.58H262.48z"/>
				<path class="st0" d="M291.51,389.95v-18.27h-4.35v-4.9h9.86v23.17h4.35v4.9h-14.21v-4.9H291.51z M290.73,357.23
					c0-0.89,0.31-1.66,0.94-2.32c0.63-0.66,1.43-0.99,2.39-0.99c0.91,0,1.69,0.32,2.35,0.96c0.66,0.64,0.99,1.42,0.99,2.35
					c0,0.93-0.33,1.72-0.99,2.36c-0.66,0.65-1.44,0.97-2.35,0.97c-0.93,0-1.72-0.33-2.36-0.99
					C291.05,358.92,290.73,358.14,290.73,357.23z"/>
				<path class="st0" d="M314.6,366.77v3.39c3.54-2.55,6.77-3.83,9.69-3.83c1.82,0,3.32,0.43,4.51,1.29
					c1.19,0.86,1.97,1.91,2.34,3.16c0.37,1.25,0.55,3.07,0.55,5.47v13.69h4.73v4.9h-10.24v-18.36c0-2.13-0.32-3.51-0.96-4.16
					c-0.64-0.65-1.42-0.97-2.35-0.97c-2.44,0-5.19,1.19-8.27,3.57v15.02h4.84v4.9h-15.28v-4.9h4.93v-18.27h-4.93v-4.9H314.6z"/>
				<path class="st0" d="M357.75,389.95v-30.54h-5.08v-4.9h10.59v15.49c3.31-2.67,6.45-4,9.43-4c1.86,0,3.38,0.39,4.58,1.16
					c1.2,0.77,2.02,1.79,2.45,3.06c0.43,1.27,0.65,3.12,0.65,5.55v14.18h4.78v4.9h-10.3v-17.17c0-2.13-0.07-3.55-0.2-4.26
					c-0.14-0.71-0.51-1.3-1.12-1.77c-0.61-0.46-1.33-0.7-2.16-0.7c-2.13,0-4.83,1.21-8.12,3.63v15.37h4.87v4.9h-15.46v-4.9H357.75z"
					/>
				<path class="st0" d="M416.28,389.95v4.9h-9.63v-3.42c-2.67,2.59-5.65,3.89-8.93,3.89c-2.55,0-4.77-0.83-6.66-2.49
					c-1.89-1.66-2.83-3.79-2.83-6.38c0-2.61,1-4.78,3-6.5c2-1.72,4.41-2.58,7.24-2.58c2.63,0,5.17,0.79,7.63,2.38v-2.78
					c0-1.43-0.14-2.53-0.41-3.31c-0.27-0.77-0.9-1.47-1.9-2.09c-1-0.62-2.3-0.93-3.9-0.93c-2.77,0-4.77,1.1-6,3.31l-5.28-1.39
					c2.34-4.37,6.38-6.56,12.12-6.56c2.11,0,3.93,0.29,5.47,0.86c1.54,0.57,2.68,1.3,3.44,2.2c0.75,0.9,1.26,1.87,1.52,2.91
					c0.26,1.04,0.39,2.71,0.39,4.99v12.99H416.28z M406.1,384.41c-2.38-1.86-4.78-2.78-7.22-2.78c-1.53,0-2.8,0.44-3.83,1.33
					c-1.02,0.89-1.54,2.04-1.54,3.45c0,1.31,0.45,2.42,1.35,3.31c0.9,0.89,2.12,1.33,3.67,1.33c2.67,0,5.19-1.12,7.57-3.36V384.41z"
					/>
				<path class="st0" d="M429.07,366.77v3.39c3.54-2.55,6.77-3.83,9.69-3.83c1.82,0,3.32,0.43,4.51,1.29
					c1.19,0.86,1.97,1.91,2.34,3.16c0.37,1.25,0.55,3.07,0.55,5.47v13.69h4.73v4.9h-10.24v-18.36c0-2.13-0.32-3.51-0.96-4.16
					c-0.64-0.65-1.42-0.97-2.35-0.97c-2.44,0-5.19,1.19-8.27,3.57v15.02h4.84v4.9h-15.28v-4.9h4.93v-18.27h-4.93v-4.9H429.07z"/>
				<path class="st0" d="M491.42,389.95v-18.27h-4.35v-4.9h9.86v23.17h4.35v4.9h-14.21v-4.9H491.42z M490.64,357.23
					c0-0.89,0.31-1.66,0.94-2.32c0.63-0.66,1.43-0.99,2.39-0.99c0.91,0,1.69,0.32,2.35,0.96c0.66,0.64,0.99,1.42,0.99,2.35
					c0,0.93-0.33,1.72-0.99,2.36c-0.66,0.65-1.44,0.97-2.35,0.97c-0.93,0-1.72-0.33-2.36-0.99
					C490.96,358.92,490.64,358.14,490.64,357.23z"/>
			</g>
		</g>
		<path class="st0" d="M478.52,370.09c-2.9-2.74-6.37-4.1-10.41-4.1c-4.12,0-7.61,1.39-10.47,4.16c-2.86,2.78-4.29,6.33-4.29,10.66
			c0,4.33,1.42,7.89,4.25,10.67c2.83,2.78,6.34,4.18,10.51,4.18c4.06,0,7.54-1.37,10.43-4.12c2.89-2.75,4.34-6.32,4.34-10.73
			C482.87,376.4,481.42,372.83,478.52,370.09z M474.13,382.55c-0.31,0.23-0.45,0.63-0.33,1l2.34,7.22c0.27,0.83-0.68,1.51-1.38,1
			l-6.14-4.46c-0.31-0.23-0.74-0.23-1.05,0l-6.14,4.46c-0.7,0.51-1.65-0.18-1.38-1l2.34-7.22c0.12-0.37-0.01-0.77-0.33-1l-6.14-4.46
			c-0.7-0.51-0.34-1.62,0.53-1.62h7.59c0.39,0,0.73-0.25,0.85-0.62l2.34-7.22c0.27-0.83,1.44-0.83,1.71,0l2.34,7.22
			c0.12,0.37,0.46,0.62,0.85,0.62h7.59c0.87,0,1.23,1.11,0.53,1.62L474.13,382.55z"/>
	</g>
</g>
</svg>
